<svg id="Layer_1" data-name="Layer 1" xmlns="http://www.w3.org/2000/svg" viewBox="0 0 700 700"><defs><style>.cls-1{fill:#fff;}.cls-2{fill:#cae8d5;}.cls-3{fill:#001c2f;}.cls-4{fill:#204051;}.cls-5{fill:#3b6978;}.cls-6{fill:#84a9ac;}.cls-7{fill:red;}</style></defs><title>Logo AMoS ED simplu</title><path class="cls-1" d="M78.26,498.21h0v0c.41-.8.85-1.62,1.3-2.47C79.11,496.57,78.68,497.39,78.26,498.21ZM347,516.55c7.12.39,14.3,2.41,22.91,6.36l.47.22,225.5,63,4.54,1.27a15.59,15.59,0,0,0,5,.8c12.42,0,22.43-13.52,27.21-25.11,5.09-12.24,5.17-27.71-2.29-38.61C611.64,497.09,379.11,125,379.71,124.07l-9.65-6.75a45.24,45.24,0,0,0-53.58,7.75l-9.17,13.36-.13.2C273.72,184.68,97.92,461.4,81.12,492.76l-.2.3c0,.05-.08.07-.08.11-.46.87-1,1.71-1.43,2.55-.06.13-13.15,26.13-13.15,26.16-4.33,7.83-2.77,18.77,2.16,30.62,5.78,14,18.56,29.08,31.67,29.08a17.77,17.77,0,0,0,4.39-.59l206.59-62.56c-1.86.83,12.27-3.54,20.29-3.76Z"/><path class="cls-2" d="M395.64,174.28c-24.45,9.62-52.78,21.34-86.31,35.69l-43.45,13.15,45.46-66.78L321,142.59a39.07,39.07,0,0,1,43.22-8.22c.3-.13,4.24,2.07,5.69,3.5Z"/><path class="cls-3" d="M320.45,449.55l-.63.22L103.48,515.28a16.51,16.51,0,0,1-4.29.59A21.44,21.44,0,0,1,88,512.32L79.1,525.2c-4,4-3.92,12.69.21,22.65,5.62,13.56,16,22.72,20.84,21.44L316,503.94c106.46-45.53,186-75.85,228.35-75.85a73.16,73.16,0,0,1,9.18.54l-36-50.91C469.56,387.31,394.58,417.85,320.45,449.55Z"/><path class="cls-4" d="M314,431.46c72-30.77,144.83-60.44,193.85-71.31l-31.49-44.54c-36.53,11.44-85.55,30.53-157.88,61.46l-.63.23L135.8,432.43,92.88,495.5c2.06,1.2,3.9,1.69,5.29,1.31Z"/><path class="cls-5" d="M438.73,254.57c-31.55,11.45-70.8,27.28-122.93,49.57l-.63.23L193.4,341.24l-46.25,67.95,167.3-50.66c71.12-30.4,118.28-48.85,155-60.55Z"/><path class="cls-6" d="M401.24,192.4c-24.94,9.75-53.41,21.51-89.08,36.77l-.63.23L253.33,247l-48,70.54,107-32.43c51.32-21.93,88.85-37.1,120.12-48.53Z"/><path class="cls-7" d="M603,575.8a4,4,0,0,0,1.28.21c4.28,0,11.42-6.58,16-17.6,4.5-10.86,4.47-21.2-.06-25.74l-.67-.79-54.49-77c-3.57-5.05-11.24-7.61-22.78-7.61-35.19,0-99.44,22.87-185.31,58.67a86,86,0,0,1,16.44,5.76Z"/></svg>